<svg viewBox="0 0 1440 900" xmlns="http://www.w3.org/2000/svg" font-family="'Segoe UI',Arial,sans-serif"><rect width="1440" height="900" fill="#0d1117"/>
  <defs>
    <linearGradient id="urlbar" x1="0" x2="0" y1="0" y2="1">
      <stop offset="0" stop-color="#3c3c3c"/><stop offset="1" stop-color="#2d2d2d"/>
    </linearGradient>
  </defs>
  <rect width="1440" height="78" fill="#1f1f1f"/>
  <rect width="1440" height="40" fill="#2d2d2d"/>
  <circle cx="20" cy="20" r="6" fill="#ff5f57"/>
  <circle cx="40" cy="20" r="6" fill="#febc2e"/>
  <circle cx="60" cy="20" r="6" fill="#28c840"/>
  <path d="M 90 40 Q 100 40 105 32 L 115 12 Q 120 4 130 4 L 360 4 Q 370 4 375 12 L 385 32 Q 390 40 400 40 Z" fill="#1f1f1f"/>
  <circle cx="135" cy="22" r="7" fill="#58a6ff"/>
  <text x="132" y="26" font-size="10" fill="#fff" font-weight="bold" font-family="monospace">⚡</text>
  <text x="155" y="26" font-size="11.5" fill="#e6edf3" font-family="'Segoe UI',Arial">StackStorm — Workflow Execution</text>
  <text x="370" y="26" font-size="14" fill="#8b949e">×</text>
  <text x="420" y="26" font-size="11" fill="#8b949e" font-family="'Segoe UI',Arial">+ New Tab</text>
  <text x="20" y="62" font-size="14" fill="#8b949e" font-family="Arial">←</text>
  <text x="44" y="62" font-size="14" fill="#8b949e" font-family="Arial">→</text>
  <text x="68" y="62" font-size="14" fill="#8b949e" font-family="Arial">⟳</text>
  <rect x="92" y="48" width="1240" height="22" rx="11" fill="url(#urlbar)" stroke="#1a1a1a"/>
  <text x="106" y="63" font-size="10" fill="#28c840" font-family="monospace">🔒</text>
  <text x="122" y="63" font-size="11" fill="#cccccc" font-family="monospace">https://soar.lab.local/#/history/61b3d290.../general</text>
  <text x="1350" y="62" font-size="14" fill="#8b949e">⋮</text>
<rect x="0" y="78" width="1440" height="44" fill="#1a1f2e"/><text x="20" y="105" font-size="13" fill="#58a6ff" font-weight="bold">⚙ StackStorm</text><text x="160" y="105" font-size="11" fill="#8b949e">Workflows › auto_respond_brute_force › Execution 61b3d290</text><rect x="1220" y="88" width="100" height="24" rx="3" fill="#3fb950"/><text x="1235" y="104" font-size="11" fill="#fff" font-weight="bold">● succeeded</text><text x="1330" y="105" font-size="10" fill="#8b949e">Duration: 4.2s</text><rect x="0" y="122" width="280" height="778" fill="#161b22"/><rect x="280" y="122" width="1" height="778" fill="#30363d"/><text x="20" y="148" font-size="11" fill="#8b949e" font-weight="bold">EXECUTION TREE</text><text x="20" y="178" font-size="11" fill="#c9d1d9" font-family="monospace">▼ wf_brute_force.yaml</text><text x="20" y="192" font-size="9" fill="#8b949e" font-family="monospace">succeeded</text><text x="36" y="214" font-size="11" fill="#c9d1d9" font-family="monospace">  ✓ enrich_source_ip</text><text x="36" y="228" font-size="9" fill="#8b949e" font-family="monospace">0.4s</text><rect x="0" y="234" width="280" height="34" fill="#1f2937"/><text x="36" y="250" font-size="11" fill="#c9d1d9" font-family="monospace">  ✓ check_misp_intel</text><text x="36" y="264" font-size="9" fill="#8b949e" font-family="monospace">0.7s</text><text x="36" y="286" font-size="11" fill="#c9d1d9" font-family="monospace">  ✓ decision_gate</text><text x="36" y="300" font-size="9" fill="#8b949e" font-family="monospace">0.0s</text><text x="52" y="322" font-size="11" fill="#c9d1d9" font-family="monospace">    ✓ block_ip_at_edge</text><text x="52" y="336" font-size="9" fill="#8b949e" font-family="monospace">1.1s</text><text x="52" y="358" font-size="11" fill="#c9d1d9" font-family="monospace">    ✓ isolate_host</text><text x="52" y="372" font-size="9" fill="#8b949e" font-family="monospace">1.3s</text><text x="36" y="394" font-size="11" fill="#c9d1d9" font-family="monospace">  ✓ create_iris_case</text><text x="36" y="408" font-size="9" fill="#8b949e" font-family="monospace">0.5s</text><text x="36" y="430" font-size="11" fill="#c9d1d9" font-family="monospace">  ✓ notify_slack</text><text x="36" y="444" font-size="9" fill="#8b949e" font-family="monospace">0.2s</text><rect x="290" y="132" width="1130" height="460" rx="6" fill="#0d1117" stroke="#30363d"/><text x="310" y="158" font-size="13" fill="#e6edf3" font-weight="bold">Orquesta Workflow Graph</text><text x="310" y="176" font-size="10" fill="#8b949e">auto_respond_brute_force.yaml — triggered by st2.alert.brute_force</text><line x1="290" y1="132" x2="290" y2="592" stroke="#161b22" stroke-width="0.5"/><line x1="330" y1="132" x2="330" y2="592" stroke="#161b22" stroke-width="0.5"/><line x1="370" y1="132" x2="370" y2="592" stroke="#161b22" stroke-width="0.5"/><line x1="410" y1="132" x2="410" y2="592" stroke="#161b22" stroke-width="0.5"/><line x1="450" y1="132" x2="450" y2="592" stroke="#161b22" stroke-width="0.5"/><line x1="490" y1="132" x2="490" y2="592" stroke="#161b22" stroke-width="0.5"/><line x1="530" y1="132" x2="530" y2="592" stroke="#161b22" stroke-width="0.5"/><line x1="570" y1="132" x2="570" y2="592" stroke="#161b22" stroke-width="0.5"/><line x1="610" y1="132" x2="610" y2="592" stroke="#161b22" stroke-width="0.5"/><line x1="650" y1="132" x2="650" y2="592" stroke="#161b22" stroke-width="0.5"/><line x1="690" y1="132" x2="690" y2="592" stroke="#161b22" stroke-width="0.5"/><line x1="730" y1="132" x2="730" y2="592" stroke="#161b22" stroke-width="0.5"/><line x1="770" y1="132" x2="770" y2="592" stroke="#161b22" stroke-width="0.5"/><line x1="810" y1="132" x2="810" y2="592" stroke="#161b22" stroke-width="0.5"/><line x1="850" y1="132" x2="850" y2="592" stroke="#161b22" stroke-width="0.5"/><line x1="890" y1="132" x2="890" y2="592" stroke="#161b22" stroke-width="0.5"/><line x1="930" y1="132" x2="930" y2="592" stroke="#161b22" stroke-width="0.5"/><line x1="970" y1="132" x2="970" y2="592" stroke="#161b22" stroke-width="0.5"/><line x1="1010" y1="132" x2="1010" y2="592" stroke="#161b22" stroke-width="0.5"/><line x1="1050" y1="132" x2="1050" y2="592" stroke="#161b22" stroke-width="0.5"/><line x1="1090" y1="132" x2="1090" y2="592" stroke="#161b22" stroke-width="0.5"/><line x1="1130" y1="132" x2="1130" y2="592" stroke="#161b22" stroke-width="0.5"/><line x1="1170" y1="132" x2="1170" y2="592" stroke="#161b22" stroke-width="0.5"/><line x1="1210" y1="132" x2="1210" y2="592" stroke="#161b22" stroke-width="0.5"/><line x1="1250" y1="132" x2="1250" y2="592" stroke="#161b22" stroke-width="0.5"/><line x1="1290" y1="132" x2="1290" y2="592" stroke="#161b22" stroke-width="0.5"/><line x1="1330" y1="132" x2="1330" y2="592" stroke="#161b22" stroke-width="0.5"/><line x1="1370" y1="132" x2="1370" y2="592" stroke="#161b22" stroke-width="0.5"/><line x1="1410" y1="132" x2="1410" y2="592" stroke="#161b22" stroke-width="0.5"/><line x1="290" y1="132" x2="1420" y2="132" stroke="#161b22" stroke-width="0.5"/><line x1="290" y1="172" x2="1420" y2="172" stroke="#161b22" stroke-width="0.5"/><line x1="290" y1="212" x2="1420" y2="212" stroke="#161b22" stroke-width="0.5"/><line x1="290" y1="252" x2="1420" y2="252" stroke="#161b22" stroke-width="0.5"/><line x1="290" y1="292" x2="1420" y2="292" stroke="#161b22" stroke-width="0.5"/><line x1="290" y1="332" x2="1420" y2="332" stroke="#161b22" stroke-width="0.5"/><line x1="290" y1="372" x2="1420" y2="372" stroke="#161b22" stroke-width="0.5"/><line x1="290" y1="412" x2="1420" y2="412" stroke="#161b22" stroke-width="0.5"/><line x1="290" y1="452" x2="1420" y2="452" stroke="#161b22" stroke-width="0.5"/><line x1="290" y1="492" x2="1420" y2="492" stroke="#161b22" stroke-width="0.5"/><line x1="290" y1="532" x2="1420" y2="532" stroke="#161b22" stroke-width="0.5"/><line x1="290" y1="572" x2="1420" y2="572" stroke="#161b22" stroke-width="0.5"/><path d="M 550 357 C 548.0 357, 548.0 297, 546 297" fill="none" stroke="#3fb950" stroke-width="2"/><polygon points="546,297 540,294 540,300" fill="#3fb950"/><path d="M 550 357 C 548.0 357, 548.0 417, 546 417" fill="none" stroke="#3fb950" stroke-width="2"/><polygon points="546,417 540,414 540,420" fill="#3fb950"/><path d="M 710 297 C 728.0 297, 728.0 357, 746 357" fill="none" stroke="#3fb950" stroke-width="2"/><polygon points="746,357 740,354 740,360" fill="#3fb950"/><path d="M 710 417 C 728.0 417, 728.0 357, 746 357" fill="none" stroke="#3fb950" stroke-width="2"/><polygon points="746,357 740,354 740,360" fill="#3fb950"/><path d="M 910 357 C 928.0 357, 928.0 277, 946 277" fill="none" stroke="#3fb950" stroke-width="2"/><polygon points="946,277 940,274 940,280" fill="#3fb950"/><path d="M 910 357 C 928.0 357, 928.0 357, 946 357" fill="none" stroke="#3fb950" stroke-width="2"/><polygon points="946,357 940,354 940,360" fill="#3fb950"/><path d="M 910 357 C 928.0 357, 928.0 437, 946 437" fill="none" stroke="#3fb950" stroke-width="2"/><polygon points="946,437 940,434 940,440" fill="#3fb950"/><path d="M 1110 277 C 1128.0 277, 1128.0 357, 1146 357" fill="none" stroke="#3fb950" stroke-width="2"/><polygon points="1146,357 1140,354 1140,360" fill="#3fb950"/><path d="M 1110 357 C 1128.0 357, 1128.0 357, 1146 357" fill="none" stroke="#3fb950" stroke-width="2"/><polygon points="1146,357 1140,354 1140,360" fill="#3fb950"/><path d="M 1110 437 C 1128.0 437, 1128.0 357, 1146 357" fill="none" stroke="#3fb950" stroke-width="2"/><polygon points="1146,357 1140,354 1140,360" fill="#3fb950"/><rect x="390" y="332" width="160" height="50" rx="6" fill="#161b22" stroke="#1f6feb" stroke-width="1.5"/><rect x="390" y="332" width="4" height="50" fill="#1f6feb"/><text x="404" y="354" font-size="14">🔔</text><text x="424" y="352" font-size="11" fill="#e6edf3" font-weight="bold">Alert Trigger</text><text x="424" y="368" font-size="9" fill="#8b949e" font-family="monospace">brute_force.yaml</text><circle cx="540" cy="342" r="6" fill="#3fb950"/><text x="537" y="345" font-size="8" fill="#fff" font-weight="bold">✓</text><rect x="550" y="272" width="160" height="50" rx="6" fill="#161b22" stroke="#3fb950" stroke-width="1.5"/><rect x="550" y="272" width="4" height="50" fill="#3fb950"/><text x="564" y="294" font-size="14">🌐</text><text x="584" y="292" font-size="11" fill="#e6edf3" font-weight="bold">enrich_source_ip</text><text x="584" y="308" font-size="9" fill="#8b949e" font-family="monospace">linux.dig + geoip</text><circle cx="700" cy="282" r="6" fill="#3fb950"/><text x="697" y="285" font-size="8" fill="#fff" font-weight="bold">✓</text><rect x="550" y="392" width="160" height="50" rx="6" fill="#161b22" stroke="#3fb950" stroke-width="1.5"/><rect x="550" y="392" width="4" height="50" fill="#3fb950"/><text x="564" y="414" font-size="14">🛡</text><text x="584" y="412" font-size="11" fill="#e6edf3" font-weight="bold">check_misp_intel</text><text x="584" y="428" font-size="9" fill="#8b949e" font-family="monospace">misp.search_attribute</text><circle cx="700" cy="402" r="6" fill="#3fb950"/><text x="697" y="405" font-size="8" fill="#fff" font-weight="bold">✓</text><rect x="750" y="332" width="160" height="50" rx="6" fill="#161b22" stroke="#3fb950" stroke-width="1.5"/><rect x="750" y="332" width="4" height="50" fill="#3fb950"/><text x="764" y="354" font-size="14">◆</text><text x="784" y="352" font-size="11" fill="#e6edf3" font-weight="bold">decision_gate</text><text x="784" y="368" font-size="9" fill="#8b949e" font-family="monospace">if misp.match || score>80</text><circle cx="900" cy="342" r="6" fill="#3fb950"/><text x="897" y="345" font-size="8" fill="#fff" font-weight="bold">✓</text><rect x="950" y="252" width="160" height="50" rx="6" fill="#161b22" stroke="#3fb950" stroke-width="1.5"/><rect x="950" y="252" width="4" height="50" fill="#3fb950"/><text x="964" y="274" font-size="14">🚫</text><text x="984" y="272" font-size="11" fill="#e6edf3" font-weight="bold">block_ip_at_edge</text><text x="984" y="288" font-size="9" fill="#8b949e" font-family="monospace">fortigate.add_block</text><circle cx="1100" cy="262" r="6" fill="#3fb950"/><text x="1097" y="265" font-size="8" fill="#fff" font-weight="bold">✓</text><rect x="950" y="332" width="160" height="50" rx="6" fill="#161b22" stroke="#3fb950" stroke-width="1.5"/><rect x="950" y="332" width="4" height="50" fill="#3fb950"/><text x="964" y="354" font-size="14">🔒</text><text x="984" y="352" font-size="11" fill="#e6edf3" font-weight="bold">isolate_host</text><text x="984" y="368" font-size="9" fill="#8b949e" font-family="monospace">velociraptor.quarantine</text><circle cx="1100" cy="342" r="6" fill="#3fb950"/><text x="1097" y="345" font-size="8" fill="#fff" font-weight="bold">✓</text><rect x="950" y="412" width="160" height="50" rx="6" fill="#161b22" stroke="#3fb950" stroke-width="1.5"/><rect x="950" y="412" width="4" height="50" fill="#3fb950"/><text x="964" y="434" font-size="14">📋</text><text x="984" y="432" font-size="11" fill="#e6edf3" font-weight="bold">create_iris_case</text><text x="984" y="448" font-size="9" fill="#8b949e" font-family="monospace">iris.case.create</text><circle cx="1100" cy="422" r="6" fill="#3fb950"/><text x="1097" y="425" font-size="8" fill="#fff" font-weight="bold">✓</text><rect x="1150" y="332" width="160" height="50" rx="6" fill="#161b22" stroke="#3fb950" stroke-width="1.5"/><rect x="1150" y="332" width="4" height="50" fill="#3fb950"/><text x="1164" y="354" font-size="14">💬</text><text x="1184" y="352" font-size="11" fill="#e6edf3" font-weight="bold">notify_slack</text><text x="1184" y="368" font-size="9" fill="#8b949e" font-family="monospace">slack.post #soc-alerts</text><circle cx="1300" cy="342" r="6" fill="#3fb950"/><text x="1297" y="345" font-size="8" fill="#fff" font-weight="bold">✓</text><rect x="290" y="604" width="1130" height="286" rx="6" fill="#0d1117" stroke="#30363d"/><text x="310" y="626" font-size="12" fill="#e6edf3" font-weight="bold">Execution Log — Live</text><text x="1330" y="626" font-size="10" fill="#3fb950">● tail</text><text x="310" y="648" font-size="10" fill="#6e7681" font-family="monospace">13:42:54.103</text><text x="400" y="648" font-size="10" fill="#3fb950" font-family="monospace" font-weight="bold">INFO</text><text x="455" y="648" font-size="10" fill="#79c0ff" font-family="monospace">st2.executions</text><text x="575" y="648" font-size="10" fill="#c9d1d9" font-family="monospace">starting wf_brute_force.yaml ex_id=61b3d290</text><text x="310" y="666" font-size="10" fill="#6e7681" font-family="monospace">13:42:54.512</text><text x="400" y="666" font-size="10" fill="#3fb950" font-family="monospace" font-weight="bold">INFO</text><text x="455" y="666" font-size="10" fill="#79c0ff" font-family="monospace">linux.dig</text><text x="575" y="666" font-size="10" fill="#c9d1d9" font-family="monospace">reverse-lookup 203.0.113.47 → no PTR</text><text x="310" y="684" font-size="10" fill="#6e7681" font-family="monospace">13:42:54.521</text><text x="400" y="684" font-size="10" fill="#3fb950" font-family="monospace" font-weight="bold">INFO</text><text x="455" y="684" font-size="10" fill="#79c0ff" font-family="monospace">geoip</text><text x="575" y="684" font-size="10" fill="#c9d1d9" font-family="monospace">203.0.113.47 → RU / Moscow / AS49505</text><text x="310" y="702" font-size="10" fill="#6e7681" font-family="monospace">13:42:55.241</text><text x="400" y="702" font-size="10" fill="#d29922" font-family="monospace" font-weight="bold">WARN</text><text x="455" y="702" font-size="10" fill="#79c0ff" font-family="monospace">misp.search</text><text x="575" y="702" font-size="10" fill="#c9d1d9" font-family="monospace">match: 203.0.113.47 in feed=ssh_bruteforce score=92</text><text x="310" y="720" font-size="10" fill="#6e7681" font-family="monospace">13:42:55.244</text><text x="400" y="720" font-size="10" fill="#3fb950" font-family="monospace" font-weight="bold">INFO</text><text x="455" y="720" font-size="10" fill="#79c0ff" font-family="monospace">decision_gate</text><text x="575" y="720" font-size="10" fill="#c9d1d9" font-family="monospace">condition: misp.match=true → branch=contain</text><text x="310" y="738" font-size="10" fill="#6e7681" font-family="monospace">13:42:56.357</text><text x="400" y="738" font-size="10" fill="#3fb950" font-family="monospace" font-weight="bold">INFO</text><text x="455" y="738" font-size="10" fill="#79c0ff" font-family="monospace">fortigate</text><text x="575" y="738" font-size="10" fill="#c9d1d9" font-family="monospace">POST /api/v2/cmdb/firewall/address {ip:203.0.113.47} → 200</text><text x="310" y="756" font-size="10" fill="#6e7681" font-family="monospace">13:42:56.359</text><text x="400" y="756" font-size="10" fill="#3fb950" font-family="monospace" font-weight="bold">INFO</text><text x="455" y="756" font-size="10" fill="#79c0ff" font-family="monospace">fortigate</text><text x="575" y="756" font-size="10" fill="#c9d1d9" font-family="monospace">policy update applied — rule_id=4301</text><text x="310" y="774" font-size="10" fill="#6e7681" font-family="monospace">13:42:57.612</text><text x="400" y="774" font-size="10" fill="#3fb950" font-family="monospace" font-weight="bold">INFO</text><text x="455" y="774" font-size="10" fill="#79c0ff" font-family="monospace">velociraptor</text><text x="575" y="774" font-size="10" fill="#c9d1d9" font-family="monospace">client web-prod-01: collection Quarantine.Generic</text><text x="310" y="792" font-size="10" fill="#6e7681" font-family="monospace">13:42:58.118</text><text x="400" y="792" font-size="10" fill="#3fb950" font-family="monospace" font-weight="bold">INFO</text><text x="455" y="792" font-size="10" fill="#79c0ff" font-family="monospace">iris</text><text x="575" y="792" font-size="10" fill="#c9d1d9" font-family="monospace">case 2026-CASE-00184 created — assignee: l1-soc</text><text x="310" y="810" font-size="10" fill="#6e7681" font-family="monospace">13:42:58.317</text><text x="400" y="810" font-size="10" fill="#3fb950" font-family="monospace" font-weight="bold">INFO</text><text x="455" y="810" font-size="10" fill="#79c0ff" font-family="monospace">slack</text><text x="575" y="810" font-size="10" fill="#c9d1d9" font-family="monospace">posted to #soc-alerts (msg_ts=1714567378.0042)</text><text x="310" y="828" font-size="10" fill="#6e7681" font-family="monospace">13:42:58.321</text><text x="400" y="828" font-size="10" fill="#3fb950" font-family="monospace" font-weight="bold">INFO</text><text x="455" y="828" font-size="10" fill="#79c0ff" font-family="monospace">st2.executions</text><text x="575" y="828" font-size="10" fill="#c9d1d9" font-family="monospace">ex_id=61b3d290 → status=succeeded duration=4.218s</text></svg>