<svg viewBox="0 0 1440 900" xmlns="http://www.w3.org/2000/svg" font-family="'Segoe UI',Arial,sans-serif">
  <rect width="1440" height="900" fill="#0d1117"/>
  <defs>
    <linearGradient id="urlbar" x1="0" x2="0" y1="0" y2="1">
      <stop offset="0" stop-color="#3c3c3c"/><stop offset="1" stop-color="#2d2d2d"/>
    </linearGradient>
  </defs>
  <!-- Browser Chrome Bar -->
  <rect width="1440" height="78" fill="#1f1f1f"/>
  <rect width="1440" height="40" fill="#2d2d2d"/>
  <circle cx="20" cy="20" r="6" fill="#ff5f57"/>
  <circle cx="40" cy="20" r="6" fill="#febc2e"/>
  <circle cx="60" cy="20" r="6" fill="#28c840"/>
  <path d="M 90 40 Q 100 40 105 32 L 115 12 Q 120 4 130 4 L 380 4 Q 390 4 395 12 L 405 32 Q 410 40 420 40 Z" fill="#1f1f1f"/>
  <circle cx="135" cy="22" r="7" fill="#da3633"/>
  <text x="131" y="26" font-size="10" fill="#fff" font-weight="bold" font-family="monospace">⚔</text>
  <text x="155" y="26" font-size="11.5" fill="#e6edf3">MITRE ATT&amp;CK Navigator — Coverage Heatmap</text>
  <text x="390" y="26" font-size="14" fill="#8b949e">×</text>
  <text x="440" y="26" font-size="11" fill="#8b949e">+ New Tab</text>
  <text x="20" y="62" font-size="14" fill="#8b949e">←</text>
  <text x="44" y="62" font-size="14" fill="#8b949e">→</text>
  <text x="68" y="62" font-size="14" fill="#8b949e">⟳</text>
  <rect x="92" y="48" width="1240" height="22" rx="11" fill="url(#urlbar)" stroke="#1a1a1a"/>
  <text x="106" y="63" font-size="10" fill="#28c840">🔒</text>
  <text x="122" y="63" font-size="11" fill="#cccccc" font-family="monospace">https://attack.lab.local/navigator/#/layer/autonomous-soc-coverage</text>
  <text x="1350" y="62" font-size="14" fill="#8b949e">⋮</text>

  <!-- Top App Navigation -->
  <rect x="0" y="78" width="1440" height="48" fill="#161b22"/>
  <rect x="0" y="125" width="1440" height="1" fill="#30363d"/>
  <text x="24" y="108" font-size="16" fill="#f85149" font-weight="bold">🎯 MITRE ATT&amp;CK NAVIGATOR (v14.1 Enterprise)</text>
  <text x="450" y="108" font-size="12" fill="#8b949e">Layer: <tspan fill="#e6edf3" font-weight="bold">Autonomous SOC Lab Detection &amp; Response Baseline</tspan></text>
  <rect x="1100" y="88" width="170" height="26" rx="4" fill="#21262d" stroke="#30363d"/>
  <text x="1112" y="105" font-size="11" fill="#c9d1d9">Coverage: 28 Techniques</text>
  <rect x="1285" y="88" width="130" height="26" rx="4" fill="#1f6feb"/>
  <text x="1300" y="105" font-size="11" fill="#fff" font-weight="bold">Export Layer ⤓</text>

  <!-- Legend & Statistics Row -->
  <rect x="24" y="140" width="1392" height="74" rx="6" fill="#161b22" stroke="#30363d"/>
  <text x="44" y="166" font-size="11" fill="#8b949e" font-weight="bold">COVERAGE STATUS LEGEND:</text>

  <rect x="44" y="178" width="18" height="18" rx="3" fill="#238636"/>
  <text x="70" y="192" font-size="11" fill="#3fb950" font-weight="bold">Detection + Auto-Containment (Active)</text>

  <rect x="360" y="178" width="18" height="18" rx="3" fill="#1f6feb"/>
  <text x="386" y="192" font-size="11" fill="#58a6ff" font-weight="bold">Detection + Analyst Approval Gate</text>

  <rect x="670" y="178" width="18" height="18" rx="3" fill="#d29922"/>
  <text x="696" y="192" font-size="11" fill="#d29922" font-weight="bold">Detection + Telemetry Alert Only</text>

  <rect x="960" y="178" width="18" height="18" rx="3" fill="#21262d"/>
  <text x="986" y="192" font-size="11" fill="#8b949e">Monitored / Unmapped</text>

  <!-- Matrix Header Tactics Columns (8 Key Columns) -->
  <!-- Col 1: Initial Access -->
  <rect x="24" y="230" width="165" height="40" fill="#21262d" rx="4"/>
  <text x="32" y="254" font-size="11" fill="#e6edf3" font-weight="bold">Initial Access</text>
  <text x="150" y="254" font-size="10" fill="#8b949e">(9)</text>

  <!-- Col 2: Execution -->
  <rect x="198" y="230" width="165" height="40" fill="#21262d" rx="4"/>
  <text x="206" y="254" font-size="11" fill="#e6edf3" font-weight="bold">Execution</text>
  <text x="324" y="254" font-size="10" fill="#8b949e">(14)</text>

  <!-- Col 3: Persistence -->
  <rect x="372" y="230" width="165" height="40" fill="#21262d" rx="4"/>
  <text x="380" y="254" font-size="11" fill="#e6edf3" font-weight="bold">Persistence</text>
  <text x="498" y="254" font-size="10" fill="#8b949e">(19)</text>

  <!-- Col 4: Privilege Escalation -->
  <rect x="546" y="230" width="165" height="40" fill="#21262d" rx="4"/>
  <text x="554" y="254" font-size="11" fill="#e6edf3" font-weight="bold">Priv Escalation</text>
  <text x="672" y="254" font-size="10" fill="#8b949e">(13)</text>

  <!-- Col 5: Defense Evasion -->
  <rect x="720" y="230" width="165" height="40" fill="#21262d" rx="4"/>
  <text x="728" y="254" font-size="11" fill="#e6edf3" font-weight="bold">Defense Evasion</text>
  <text x="846" y="254" font-size="10" fill="#8b949e">(42)</text>

  <!-- Col 6: Credential Access -->
  <rect x="894" y="230" width="165" height="40" fill="#21262d" rx="4"/>
  <text x="902" y="254" font-size="11" fill="#e6edf3" font-weight="bold">Credential Access</text>
  <text x="1020" y="254" font-size="10" fill="#8b949e">(17)</text>

  <!-- Col 7: Lateral Movement -->
  <rect x="1068" y="230" width="165" height="40" fill="#21262d" rx="4"/>
  <text x="1076" y="254" font-size="11" fill="#e6edf3" font-weight="bold">Lateral Move</text>
  <text x="1194" y="254" font-size="10" fill="#8b949e">(9)</text>

  <!-- Col 8: Command & Control -->
  <rect x="1242" y="230" width="174" height="40" fill="#21262d" rx="4"/>
  <text x="1250" y="254" font-size="11" fill="#e6edf3" font-weight="bold">Command &amp; Control</text>
  <text x="1378" y="254" font-size="10" fill="#8b949e">(16)</text>

  <!-- Technique Cards Rows -->
  <!-- Row 1 -->
  <!-- Col 1: T1566 Phishing -->
  <rect x="24" y="278" width="165" height="60" fill="#161b22" stroke="#d29922" rx="3"/>
  <text x="32" y="298" font-size="9.5" fill="#d29922" font-family="monospace">T1566.001</text>
  <text x="32" y="316" font-size="10.5" fill="#e6edf3" font-weight="bold">Spearphishing Link</text>
  <text x="32" y="330" font-size="8.5" fill="#8b949e">MISP Domain Match</text>

  <!-- Col 2: T1059.001 PowerShell -->
  <rect x="198" y="278" width="165" height="60" fill="#161b22" stroke="#1f6feb" stroke-width="2" rx="3"/>
  <text x="206" y="298" font-size="9.5" fill="#58a6ff" font-family="monospace">T1059.001 [RT-001]</text>
  <text x="206" y="316" font-size="10.5" fill="#e6edf3" font-weight="bold">PowerShell Encoded</text>
  <text x="206" y="330" font-size="8.5" fill="#3fb950">SOAR Triage + Approval</text>

  <!-- Col 3: T1053 Scheduled Task -->
  <rect x="372" y="278" width="165" height="60" fill="#161b22" stroke="#d29922" rx="3"/>
  <text x="380" y="298" font-size="9.5" fill="#d29922" font-family="monospace">T1053.005</text>
  <text x="380" y="316" font-size="10.5" fill="#e6edf3" font-weight="bold">Scheduled Task</text>
  <text x="380" y="330" font-size="8.5" fill="#8b949e">ElastAlert Rule Active</text>

  <!-- Col 4: T1548.003 Sudoers -->
  <rect x="546" y="278" width="165" height="60" fill="#161b22" stroke="#238636" stroke-width="2" rx="3"/>
  <text x="554" y="298" font-size="9.5" fill="#3fb950" font-family="monospace">T1548.003 [RT-003]</text>
  <text x="554" y="316" font-size="10.5" fill="#e6edf3" font-weight="bold">Sudo &amp; NOPASSWD</text>
  <text x="554" y="330" font-size="8.5" fill="#3fb950">Auto-Contained (Host)</text>

  <!-- Col 5: T1027 Obfuscation -->
  <rect x="720" y="278" width="165" height="60" fill="#161b22" stroke="#1f6feb" rx="3"/>
  <text x="728" y="298" font-size="9.5" fill="#58a6ff" font-family="monospace">T1027</text>
  <text x="728" y="316" font-size="10.5" fill="#e6edf3" font-weight="bold">Obfuscated Files</text>
  <text x="728" y="330" font-size="8.5" fill="#8b949e">Vector VRL Decoded</text>

  <!-- Col 6: T1110.001 Brute Force -->
  <rect x="894" y="278" width="165" height="60" fill="#161b22" stroke="#238636" stroke-width="2" rx="3"/>
  <text x="902" y="298" font-size="9.5" fill="#3fb950" font-family="monospace">T1110.001 [RT-003]</text>
  <text x="902" y="316" font-size="10.5" fill="#e6edf3" font-weight="bold">Password Guessing</text>
  <text x="902" y="330" font-size="8.5" fill="#3fb950">Auto-Blocked (IP Null)</text>

  <!-- Col 7: T1021.001 Remote Desktop -->
  <rect x="1068" y="278" width="165" height="60" fill="#161b22" stroke="#1f6feb" stroke-width="2" rx="3"/>
  <text x="1076" y="298" font-size="9.5" fill="#58a6ff" font-family="monospace">T1021.001</text>
  <text x="1076" y="316" font-size="10.5" fill="#e6edf3" font-weight="bold">RDP Lateral Move</text>
  <text x="1076" y="330" font-size="8.5" fill="#58a6ff">IRIS Case + Review</text>

  <!-- Col 8: T1071.001 Web Protocols -->
  <rect x="1242" y="278" width="174" height="60" fill="#161b22" stroke="#238636" stroke-width="2" rx="3"/>
  <text x="1250" y="298" font-size="9.5" fill="#3fb950" font-family="monospace">T1071.001 [RT-002]</text>
  <text x="1250" y="316" font-size="10.5" fill="#e6edf3" font-weight="bold">Web C2 Beaconing</text>
  <text x="1250" y="330" font-size="8.5" fill="#3fb950">Auto-Contained (Edge)</text>

  <!-- Row 2 -->
  <!-- Col 1: T1190 Exploit Public-Facing App -->
  <rect x="24" y="346" width="165" height="60" fill="#161b22" stroke="#21262d" rx="3"/>
  <text x="32" y="366" font-size="9.5" fill="#8b949e" font-family="monospace">T1190</text>
  <text x="32" y="384" font-size="10.5" fill="#c9d1d9">Exploit Public App</text>
  <text x="32" y="398" font-size="8.5" fill="#8b949e">Suricata Network Rule</text>

  <!-- Col 2: T1059.003 Windows Command Shell -->
  <rect x="198" y="346" width="165" height="60" fill="#161b22" stroke="#d29922" rx="3"/>
  <text x="206" y="366" font-size="9.5" fill="#d29922" font-family="monospace">T1059.003</text>
  <text x="206" y="384" font-size="10.5" fill="#c9d1d9">cmd.exe Spawn</text>
  <text x="206" y="398" font-size="8.5" fill="#8b949e">Sysmon Parent Rule</text>

  <!-- Col 3: T1547.001 Run Keys -->
  <rect x="372" y="346" width="165" height="60" fill="#161b22" stroke="#1f6feb" rx="3"/>
  <text x="380" y="366" font-size="9.5" fill="#58a6ff" font-family="monospace">T1547.001</text>
  <text x="380" y="384" font-size="10.5" fill="#e6edf3">Registry Run Keys</text>
  <text x="380" y="398" font-size="8.5" fill="#58a6ff">Velociraptor Hunt</text>

  <!-- Col 4: T1068 Exploitation for Priv Esc -->
  <rect x="546" y="346" width="165" height="60" fill="#161b22" stroke="#21262d" rx="3"/>
  <text x="554" y="366" font-size="9.5" fill="#8b949e" font-family="monospace">T1068</text>
  <text x="554" y="384" font-size="10.5" fill="#c9d1d9">Kernel Exploitation</text>
  <text x="554" y="398" font-size="8.5" fill="#8b949e">OSQuery Audit Hook</text>

  <!-- Col 5: T1070 Indicator Removal -->
  <rect x="720" y="346" width="165" height="60" fill="#161b22" stroke="#d29922" rx="3"/>
  <text x="728" y="366" font-size="9.5" fill="#d29922" font-family="monospace">T1070.001</text>
  <text x="728" y="384" font-size="10.5" fill="#c9d1d9">Clear Event Logs</text>
  <text x="728" y="398" font-size="8.5" fill="#8b949e">Event 1102 Alert</text>

  <!-- Col 6: T1003.001 OS Credential Dumping -->
  <rect x="894" y="346" width="165" height="60" fill="#161b22" stroke="#238636" stroke-width="2" rx="3"/>
  <text x="902" y="366" font-size="9.5" fill="#3fb950" font-family="monospace">T1003.001 [RT-004]</text>
  <text x="902" y="384" font-size="10.5" fill="#e6edf3" font-weight="bold">LSASS Memory Dump</text>
  <text x="902" y="398" font-size="8.5" fill="#3fb950">Auto-Contained (DC)</text>

  <!-- Col 7: T1021.002 SMB / Windows Admin Shares -->
  <rect x="1068" y="346" width="165" height="60" fill="#161b22" stroke="#238636" stroke-width="2" rx="3"/>
  <text x="1076" y="366" font-size="9.5" fill="#3fb950" font-family="monospace">T1021.002</text>
  <text x="1076" y="384" font-size="10.5" fill="#e6edf3" font-weight="bold">SMB Exec / Shares</text>
  <text x="1076" y="398" font-size="8.5" fill="#3fb950">Auto-Contained (Host)</text>

  <!-- Col 8: T1071.004 DNS Tunneling -->
  <rect x="1242" y="346" width="174" height="60" fill="#161b22" stroke="#1f6feb" rx="3"/>
  <text x="1250" y="366" font-size="9.5" fill="#58a6ff" font-family="monospace">T1071.004</text>
  <text x="1250" y="384" font-size="10.5" fill="#e6edf3">DNS Data Exfil / C2</text>
  <text x="1250" y="398" font-size="8.5" fill="#58a6ff">Pi-hole / Zeek Query</text>

  <!-- Summary Benchmark Footer -->
  <rect x="24" y="420" width="1392" height="454" rx="6" fill="#161b22" stroke="#30363d"/>
  <text x="44" y="450" font-size="14" fill="#e6edf3" font-weight="bold">Adversary Emulation Benchmark Summary (Caldera Operation results vs Detections)</text>

  <!-- Table of Emulation Validation -->
  <rect x="44" y="470" width="1352" height="26" fill="#21262d"/>
  <text x="56" y="488" font-size="10" fill="#8b949e" font-weight="bold">CALDERA ABILITY</text>
  <text x="240" y="488" font-size="10" fill="#8b949e" font-weight="bold">MITRE TTP</text>
  <text x="360" y="488" font-size="10" fill="#8b949e" font-weight="bold">PAYLOAD / COMMAND</text>
  <text x="740" y="488" font-size="10" fill="#8b949e" font-weight="bold">DETECTION RULE</text>
  <text x="960" y="488" font-size="10" fill="#8b949e" font-weight="bold">LATENCY</text>
  <text x="1080" y="488" font-size="10" fill="#8b949e" font-weight="bold">AUTONOMOUS ACTION</text>
  <text x="1280" y="488" font-size="10" fill="#8b949e" font-weight="bold">RESULT</text>

  <!-- Row 1 -->
  <rect x="44" y="502" width="1352" height="46" fill="#0d1117" fill-opacity="0.8"/>
  <text x="56" y="530" font-size="11" fill="#e6edf3" font-weight="bold">PowerShell Download Cradle</text>
  <text x="240" y="530" font-size="10.5" fill="#79c0ff" font-family="monospace">T1059.001</text>
  <text x="360" y="530" font-size="10" fill="#c9d1d9" font-family="monospace">powershell.exe -enc SQBFAFgA...</text>
  <text x="740" y="530" font-size="10.5" fill="#e6edf3">detections/powershell.yaml</text>
  <text x="960" y="530" font-size="10.5" fill="#3fb950" font-family="monospace">0.010s</text>
  <text x="1080" y="530" font-size="10.5" fill="#d29922">IRIS Case #184 (Triage)</text>
  <text x="1280" y="530" font-size="11" fill="#3fb950" font-weight="bold">✓ DETECTED</text>

  <!-- Row 2 -->
  <rect x="44" y="552" width="1352" height="46" fill="#161b22"/>
  <text x="56" y="580" font-size="11" fill="#e6edf3" font-weight="bold">Outbound C2 Beaconing</text>
  <text x="240" y="580" font-size="10.5" fill="#79c0ff" font-family="monospace">T1071.001</text>
  <text x="360" y="580" font-size="10" fill="#c9d1d9" font-family="monospace">HTTP POST /beacon 198.51.100.44</text>
  <text x="740" y="580" font-size="10.5" fill="#e6edf3">MISP Threat Intel Feed Match</text>
  <text x="960" y="580" font-size="10.5" fill="#3fb950" font-family="monospace">0.012s</text>
  <text x="1080" y="580" font-size="10.5" fill="#f85149">Auto-Containment (Host+IP)</text>
  <text x="1280" y="580" font-size="11" fill="#3fb950" font-weight="bold">✓ CONTAINED</text>

  <!-- Row 3 -->
  <rect x="44" y="602" width="1352" height="46" fill="#0d1117" fill-opacity="0.8"/>
  <text x="56" y="630" font-size="11" fill="#e6edf3" font-weight="bold">SSH Password Spray</text>
  <text x="240" y="630" font-size="10.5" fill="#79c0ff" font-family="monospace">T1110.001</text>
  <text x="360" y="630" font-size="10" fill="#c9d1d9" font-family="monospace">ssh -l admin 203.0.113.88 (x17)</text>
  <text x="740" y="630" font-size="10.5" fill="#e6edf3">detections/brute_force.yaml</text>
  <text x="960" y="630" font-size="10.5" fill="#3fb950" font-family="monospace">0.009s</text>
  <text x="1080" y="630" font-size="10.5" fill="#d29922">Enrich &amp; IP Nullroute Block</text>
  <text x="1280" y="630" font-size="11" fill="#3fb950" font-weight="bold">✓ MITIGATED</text>

  <!-- Row 4 -->
  <rect x="44" y="652" width="1352" height="46" fill="#161b22"/>
  <text x="56" y="680" font-size="11" fill="#e6edf3" font-weight="bold">Mimikatz LSASS Dump</text>
  <text x="240" y="680" font-size="10.5" fill="#79c0ff" font-family="monospace">T1003.001</text>
  <text x="360" y="680" font-size="10" fill="#c9d1d9" font-family="monospace">sekurlsa::logonpasswords</text>
  <text x="740" y="680" font-size="10.5" fill="#e6edf3">detections/privilege_escalation.yaml</text>
  <text x="960" y="680" font-size="10.5" fill="#3fb950" font-family="monospace">0.008s</text>
  <text x="1080" y="680" font-size="10.5" fill="#f85149">Auto-Isolate Host + Hunt</text>
  <text x="1280" y="680" font-size="11" fill="#3fb950" font-weight="bold">✓ CONTAINED</text>

  <!-- Bottom Metric Callout -->
  <rect x="44" y="714" width="1352" height="130" rx="4" fill="#0d1117" stroke="#30363d"/>
  <text x="64" y="744" font-size="12" fill="#58a6ff" font-weight="bold">Enterprise Detection Engineering Metrics (Lab Benchmark)</text>
  <text x="64" y="770" font-size="11" fill="#8b949e">● Mean Time to Detect (MTTD): <tspan fill="#3fb950" font-weight="bold">0.010 seconds</tspan> (Sub-second streaming detection via Vector + ElastAlert2)</text>
  <text x="64" y="794" font-size="11" fill="#8b949e">● Mean Time to Respond (MTTR): <tspan fill="#3fb950" font-weight="bold">4 minutes 12 seconds</tspan> (Including forensic hunt &amp; IRIS triage packaging)</text>
  <text x="64" y="818" font-size="11" fill="#8b949e">● Containment Success Rate: <tspan fill="#3fb950" font-weight="bold">100.0%</tspan> (11/11 simulated containment actions succeeded with verified rollbacks)</text>
</svg>
